<svg width="175" height="30" viewBox="0 0 175 30" fill="none" xmlns="http://www.w3.org/2000/svg">
<path d="M12 15H19.5M12 15C12 22.4558 18.0442 28.5 25.5 28.5M12 15C12 7.54416 18.0442 1.5 25.5 1.5M19.5 15H31.5M19.5 15C19.5 22.4558 22.1863 28.5 25.5 28.5M19.5 15C19.5 7.54416 22.1863 1.5 25.5 1.5M31.5 15H39M31.5 15C31.5 7.54416 28.8137 1.5 25.5 1.5M31.5 15C31.5 22.4558 28.8137 28.5 25.5 28.5M39 15C39 7.54416 32.9558 1.5 25.5 1.5M39 15C39 22.4558 32.9558 28.5 25.5 28.5" stroke="#22C55E" stroke-width="3" stroke-linecap="round" stroke-linejoin="round"/>
<path d="M65.4446 22.3C64.0979 22.3 62.9113 22.0067 61.8846 21.42C60.8713 20.82 60.0779 19.9933 59.5046 18.94C58.9446 17.8867 58.6646 16.6733 58.6646 15.3C58.6646 14.2867 58.8313 13.36 59.1646 12.52C59.5113 11.6667 59.9846 10.9267 60.5846 10.3C61.1979 9.67333 61.9113 9.18667 62.7246 8.84C63.5513 8.49333 64.4513 8.32 65.4246 8.32C65.9713 8.32 66.5846 8.38667 67.2646 8.52C67.9446 8.64 68.6179 8.89333 69.2846 9.28L69.3646 12.18H68.1246L67.7246 9.86C67.3646 9.66 67.0113 9.52 66.6646 9.44C66.3313 9.36 66.0046 9.32 65.6846 9.32C64.7913 9.32 63.9779 9.54667 63.2446 10C62.5113 10.4533 61.9246 11.1267 61.4846 12.02C61.0579 12.9 60.8446 13.9933 60.8446 15.3C60.8446 16.6067 61.0446 17.7067 61.4446 18.6C61.8446 19.4933 62.3979 20.1667 63.1046 20.62C63.8246 21.0733 64.6379 21.3 65.5446 21.3C65.9313 21.3 66.3246 21.26 66.7246 21.18C67.1379 21.0867 67.5379 20.9467 67.9246 20.76L68.3246 18.44H69.5646L69.4846 21.34C68.8713 21.6733 68.2179 21.9133 67.5246 22.06C66.8446 22.22 66.1513 22.3 65.4446 22.3ZM75.8218 22.26C75.0485 22.26 74.3085 22.08 73.6018 21.72C72.9085 21.3467 72.3418 20.7933 71.9018 20.06C71.4618 19.3133 71.2418 18.3933 71.2418 17.3C71.2418 16.1933 71.4618 15.2667 71.9018 14.52C72.3418 13.76 72.9085 13.1933 73.6018 12.82C74.3085 12.4333 75.0485 12.24 75.8218 12.24C76.5951 12.24 77.3285 12.4333 78.0218 12.82C78.7285 13.1933 79.3018 13.76 79.7418 14.52C80.1951 15.2667 80.4218 16.1933 80.4218 17.3C80.4218 18.3933 80.1951 19.3133 79.7418 20.06C79.3018 20.7933 78.7285 21.3467 78.0218 21.72C77.3285 22.08 76.5951 22.26 75.8218 22.26ZM75.8218 21.36C76.6885 21.36 77.3551 21.02 77.8218 20.34C78.2885 19.6467 78.5218 18.6333 78.5218 17.3C78.5218 15.9533 78.2885 14.9267 77.8218 14.22C77.3551 13.5133 76.6885 13.16 75.8218 13.16C74.9551 13.16 74.2885 13.5133 73.8218 14.22C73.3685 14.9267 73.1418 15.9533 73.1418 17.3C73.1418 18.6333 73.3685 19.6467 73.8218 20.34C74.2885 21.02 74.9551 21.36 75.8218 21.36ZM84.0184 17.3C84.0184 18.6067 84.2784 19.5733 84.7984 20.2C85.3317 20.8133 85.9984 21.12 86.7984 21.12C87.2384 21.12 87.625 21.0333 87.9584 20.86C88.305 20.6733 88.665 20.3733 89.0384 19.96V14.42C88.585 14.02 88.1784 13.7467 87.8184 13.6C87.4584 13.4533 87.1117 13.38 86.7784 13.38C86.285 13.38 85.825 13.52 85.3984 13.8C84.985 14.0667 84.6517 14.4933 84.3984 15.08C84.145 15.6533 84.0184 16.3933 84.0184 17.3ZM89.2384 22.2L89.0984 20.82C88.7517 21.2733 88.3517 21.6267 87.8984 21.88C87.4584 22.1333 86.925 22.26 86.2984 22.26C85.485 22.26 84.7717 22.0533 84.1584 21.64C83.545 21.2267 83.065 20.6533 82.7184 19.92C82.385 19.1733 82.2184 18.3133 82.2184 17.34C82.2184 16.3133 82.405 15.42 82.7784 14.66C83.1517 13.9 83.6584 13.3067 84.2984 12.88C84.9384 12.4533 85.665 12.24 86.4784 12.24C86.945 12.24 87.3917 12.3333 87.8184 12.52C88.2584 12.7067 88.685 13.0467 89.0984 13.54V9.02L87.3984 8.82V8.12L90.5184 7.22L90.7984 7.38L90.7184 10.22V21.04L92.3384 21.28V22L89.2384 22.2ZM98.046 13.16C97.6727 13.16 97.2927 13.2667 96.906 13.48C96.5327 13.6933 96.206 14.0333 95.926 14.5C95.6593 14.9667 95.486 15.5867 95.406 16.36H99.046C99.526 16.36 99.8393 16.26 99.986 16.06C100.146 15.86 100.226 15.6133 100.226 15.32C100.226 14.9333 100.126 14.58 99.926 14.26C99.7393 13.9267 99.4793 13.66 99.146 13.46C98.826 13.26 98.4593 13.16 98.046 13.16ZM98.026 22.26C96.6793 22.26 95.5993 21.8267 94.786 20.96C93.9727 20.08 93.566 18.8733 93.566 17.34C93.566 16.3133 93.7727 15.42 94.186 14.66C94.6127 13.9 95.1727 13.3067 95.866 12.88C96.5727 12.4533 97.3393 12.24 98.166 12.24C98.8593 12.24 99.486 12.3933 100.046 12.7C100.606 13.0067 101.053 13.4467 101.386 14.02C101.719 14.58 101.886 15.2667 101.886 16.08C101.886 16.3067 101.873 16.52 101.846 16.72C101.819 16.9067 101.786 17.0667 101.746 17.2H95.366C95.3927 18.4267 95.6993 19.36 96.286 20C96.8727 20.64 97.646 20.96 98.606 20.96C99.246 20.96 99.7793 20.8333 100.206 20.58C100.633 20.3133 101.026 19.9733 101.386 19.56L101.866 19.94C101.493 20.6467 100.986 21.2133 100.346 21.64C99.706 22.0533 98.9327 22.26 98.026 22.26ZM103.661 22V21.28L105.141 21C105.155 20.4933 105.161 19.9467 105.161 19.36C105.175 18.7733 105.181 18.2533 105.181 17.8V16.84C105.181 16.2933 105.175 15.84 105.161 15.48C105.161 15.12 105.148 14.74 105.121 14.34L103.541 14.16V13.46L106.341 12.24L106.641 12.44L106.801 14.06C107.268 13.5267 107.815 13.0933 108.441 12.76C109.068 12.4133 109.688 12.24 110.301 12.24C110.928 12.24 111.435 12.3867 111.821 12.68C112.221 12.9733 112.508 13.4533 112.681 14.12C113.188 13.4933 113.755 13.0267 114.381 12.72C115.008 12.4 115.648 12.24 116.301 12.24C117.115 12.24 117.741 12.5133 118.181 13.06C118.635 13.6067 118.861 14.5 118.861 15.74V17.8C118.861 18.2533 118.861 18.7733 118.861 19.36C118.875 19.9467 118.888 20.4933 118.901 21L120.301 21.28V22H115.661V21.28L117.141 21C117.155 20.5067 117.161 19.9667 117.161 19.38C117.175 18.78 117.181 18.2533 117.181 17.8V16.06C117.181 15.1267 117.048 14.5 116.781 14.18C116.515 13.8467 116.088 13.68 115.501 13.68C115.088 13.68 114.661 13.7733 114.221 13.96C113.795 14.1467 113.328 14.4733 112.821 14.94C112.835 15.0867 112.841 15.2467 112.841 15.42C112.855 15.58 112.861 15.7533 112.861 15.94V17.8C112.861 18.2533 112.861 18.7733 112.861 19.36C112.875 19.9467 112.888 20.4933 112.901 21L114.301 21.28V22H109.661V21.28L111.141 21C111.155 20.5067 111.161 19.9667 111.161 19.38C111.175 18.78 111.181 18.2533 111.181 17.8V16.1C111.181 15.1933 111.055 14.5667 110.801 14.22C110.548 13.86 110.128 13.68 109.541 13.68C109.088 13.68 108.655 13.7733 108.241 13.96C107.828 14.1467 107.375 14.4533 106.881 14.88V17.8C106.881 18.24 106.881 18.76 106.881 19.36C106.895 19.9467 106.908 20.4933 106.921 21L108.301 21.28V22H103.661ZM125.251 22.26C124.438 22.26 123.798 21.9933 123.331 21.46C122.864 20.9133 122.638 19.98 122.651 18.66L122.711 13.68L121.291 13.38V12.66L124.231 12.38L124.431 12.58L124.331 15.38V18.48C124.331 19.3467 124.464 19.96 124.731 20.32C124.998 20.6667 125.398 20.84 125.931 20.84C126.864 20.84 127.798 20.4067 128.731 19.54L128.791 13.66L127.371 13.38V12.66L130.271 12.38L130.471 12.58L130.411 15.38V21L131.771 21.28V22L128.991 22.16L128.791 20.38C128.258 21.0333 127.684 21.5133 127.071 21.82C126.471 22.1133 125.864 22.26 125.251 22.26ZM133.251 22V21.28L134.731 21C134.745 20.4933 134.751 19.9467 134.751 19.36C134.765 18.7733 134.771 18.2533 134.771 17.8V16.84C134.771 16.2933 134.765 15.84 134.751 15.48C134.751 15.12 134.738 14.74 134.711 14.34L133.131 14.16V13.46L135.931 12.24L136.231 12.44L136.391 14.04C136.885 13.5067 137.451 13.0733 138.091 12.74C138.731 12.4067 139.358 12.24 139.971 12.24C140.838 12.24 141.478 12.5333 141.891 13.12C142.318 13.6933 142.531 14.6333 142.531 15.94V17.8C142.531 18.2533 142.531 18.7733 142.531 19.36C142.545 19.9467 142.558 20.4933 142.571 21L143.971 21.28V22H139.331V21.28L140.811 21C140.825 20.5067 140.831 19.9667 140.831 19.38C140.845 18.78 140.851 18.2533 140.851 17.8V16.1C140.851 15.18 140.718 14.5467 140.451 14.2C140.198 13.8533 139.778 13.68 139.191 13.68C138.738 13.68 138.298 13.7733 137.871 13.96C137.445 14.1467 136.978 14.4533 136.471 14.88V17.8C136.471 18.24 136.471 18.76 136.471 19.36C136.485 19.9467 136.498 20.4933 136.511 21L137.891 21.28V22H133.251ZM145.28 22V21.28L146.78 21C146.793 20.4933 146.8 19.9467 146.8 19.36C146.813 18.76 146.82 18.24 146.82 17.8V16.86C146.82 16.3133 146.813 15.86 146.8 15.5C146.8 15.1267 146.787 14.74 146.76 14.34L145.16 14.16V13.46L148.24 12.24L148.54 12.44L148.48 15.16V17.8C148.48 18.24 148.48 18.76 148.48 19.36C148.493 19.9467 148.507 20.4933 148.52 21L149.92 21.28V22H145.28ZM147.64 10.04C147.267 10.04 146.947 9.92 146.68 9.68C146.427 9.44 146.3 9.13333 146.3 8.76C146.3 8.37333 146.427 8.06667 146.68 7.84C146.947 7.6 147.267 7.48 147.64 7.48C148.013 7.48 148.327 7.6 148.58 7.84C148.847 8.06667 148.98 8.37333 148.98 8.76C148.98 9.13333 148.847 9.44 148.58 9.68C148.327 9.92 148.013 10.04 147.64 10.04ZM154.637 22.26C153.944 22.26 153.39 22.0733 152.977 21.7C152.564 21.3267 152.357 20.7533 152.357 19.98C152.357 19.7267 152.357 19.48 152.357 19.24C152.37 18.9867 152.377 18.6667 152.377 18.28V13.56H150.717V12.68L152.497 12.46L153.017 9.78H154.217L154.097 12.5H156.797V13.56H154.077V19.76C154.077 20.2667 154.177 20.64 154.377 20.88C154.577 21.1067 154.844 21.22 155.177 21.22C155.404 21.22 155.617 21.1733 155.817 21.08C156.03 20.9867 156.264 20.8533 156.517 20.68L156.997 21.2C156.45 21.9067 155.664 22.26 154.637 22.26ZM163.381 13.22V12.5H167.281V13.22L166.201 13.44L162.981 21.94C162.314 23.7133 161.668 24.9933 161.041 25.78C160.428 26.58 159.708 26.98 158.881 26.98C158.388 26.98 157.954 26.8533 157.581 26.6C157.221 26.36 157.041 26.0467 157.041 25.66C157.108 25.3667 157.268 25.1467 157.521 25C157.788 24.8533 158.074 24.78 158.381 24.78C158.648 24.78 158.894 24.8333 159.121 24.94C159.348 25.06 159.594 25.26 159.861 25.54L159.961 25.64C160.388 25.28 160.748 24.84 161.041 24.32C161.334 23.8133 161.574 23.2933 161.761 22.76L161.841 22.52L158.221 13.38L157.121 13.22V12.5H161.921V13.24L160.161 13.44L162.661 20.26L165.121 13.46L163.381 13.22Z" fill="#22C55E"/>
<circle cx="3" cy="15" r="3" fill="#22C55E"/>
</svg>