<svg width="165" height="31" viewBox="0 0 165 31" fill="none" xmlns="http://www.w3.org/2000/svg">
<path d="M2 15.5H9.5M2 15.5C2 22.9558 8.04416 29 15.5 29M2 15.5C2 8.04416 8.04416 2 15.5 2M9.5 15.5H21.5M9.5 15.5C9.5 22.9558 12.1863 29 15.5 29M9.5 15.5C9.5 8.04416 12.1863 2 15.5 2M21.5 15.5H29M21.5 15.5C21.5 8.04416 18.8137 2 15.5 2M21.5 15.5C21.5 22.9558 18.8137 29 15.5 29M29 15.5C29 8.04416 22.9558 2 15.5 2M29 15.5C29 22.9558 22.9558 29 15.5 29" stroke="white" stroke-width="3" stroke-linecap="round" stroke-linejoin="round"/>
<path d="M55.4446 22.8C54.0979 22.8 52.9113 22.5067 51.8846 21.92C50.8713 21.32 50.0779 20.4933 49.5046 19.44C48.9446 18.3867 48.6646 17.1733 48.6646 15.8C48.6646 14.7867 48.8313 13.86 49.1646 13.02C49.5113 12.1667 49.9846 11.4267 50.5846 10.8C51.1979 10.1733 51.9113 9.68667 52.7246 9.34C53.5513 8.99333 54.4513 8.82 55.4246 8.82C55.9713 8.82 56.5846 8.88667 57.2646 9.02C57.9446 9.14 58.6179 9.39333 59.2846 9.78L59.3646 12.68H58.1246L57.7246 10.36C57.3646 10.16 57.0113 10.02 56.6646 9.94C56.3313 9.86 56.0046 9.82 55.6846 9.82C54.7913 9.82 53.9779 10.0467 53.2446 10.5C52.5113 10.9533 51.9246 11.6267 51.4846 12.52C51.0579 13.4 50.8446 14.4933 50.8446 15.8C50.8446 17.1067 51.0446 18.2067 51.4446 19.1C51.8446 19.9933 52.3979 20.6667 53.1046 21.12C53.8246 21.5733 54.6379 21.8 55.5446 21.8C55.9313 21.8 56.3246 21.76 56.7246 21.68C57.1379 21.5867 57.5379 21.4467 57.9246 21.26L58.3246 18.94H59.5646L59.4846 21.84C58.8713 22.1733 58.2179 22.4133 57.5246 22.56C56.8446 22.72 56.1513 22.8 55.4446 22.8ZM65.8218 22.76C65.0485 22.76 64.3085 22.58 63.6018 22.22C62.9085 21.8467 62.3418 21.2933 61.9018 20.56C61.4618 19.8133 61.2418 18.8933 61.2418 17.8C61.2418 16.6933 61.4618 15.7667 61.9018 15.02C62.3418 14.26 62.9085 13.6933 63.6018 13.32C64.3085 12.9333 65.0485 12.74 65.8218 12.74C66.5951 12.74 67.3285 12.9333 68.0218 13.32C68.7285 13.6933 69.3018 14.26 69.7418 15.02C70.1951 15.7667 70.4218 16.6933 70.4218 17.8C70.4218 18.8933 70.1951 19.8133 69.7418 20.56C69.3018 21.2933 68.7285 21.8467 68.0218 22.22C67.3285 22.58 66.5951 22.76 65.8218 22.76ZM65.8218 21.86C66.6885 21.86 67.3551 21.52 67.8218 20.84C68.2885 20.1467 68.5218 19.1333 68.5218 17.8C68.5218 16.4533 68.2885 15.4267 67.8218 14.72C67.3551 14.0133 66.6885 13.66 65.8218 13.66C64.9551 13.66 64.2885 14.0133 63.8218 14.72C63.3685 15.4267 63.1418 16.4533 63.1418 17.8C63.1418 19.1333 63.3685 20.1467 63.8218 20.84C64.2885 21.52 64.9551 21.86 65.8218 21.86ZM74.0184 17.8C74.0184 19.1067 74.2784 20.0733 74.7984 20.7C75.3317 21.3133 75.9984 21.62 76.7984 21.62C77.2384 21.62 77.625 21.5333 77.9584 21.36C78.305 21.1733 78.665 20.8733 79.0384 20.46V14.92C78.585 14.52 78.1784 14.2467 77.8184 14.1C77.4584 13.9533 77.1117 13.88 76.7784 13.88C76.285 13.88 75.825 14.02 75.3984 14.3C74.985 14.5667 74.6517 14.9933 74.3984 15.58C74.145 16.1533 74.0184 16.8933 74.0184 17.8ZM79.2384 22.7L79.0984 21.32C78.7517 21.7733 78.3517 22.1267 77.8984 22.38C77.4584 22.6333 76.925 22.76 76.2984 22.76C75.485 22.76 74.7717 22.5533 74.1584 22.14C73.545 21.7267 73.065 21.1533 72.7184 20.42C72.385 19.6733 72.2184 18.8133 72.2184 17.84C72.2184 16.8133 72.405 15.92 72.7784 15.16C73.1517 14.4 73.6584 13.8067 74.2984 13.38C74.9384 12.9533 75.665 12.74 76.4784 12.74C76.945 12.74 77.3917 12.8333 77.8184 13.02C78.2584 13.2067 78.685 13.5467 79.0984 14.04V9.52L77.3984 9.32V8.62L80.5184 7.72L80.7984 7.88L80.7184 10.72V21.54L82.3384 21.78V22.5L79.2384 22.7ZM88.046 13.66C87.6727 13.66 87.2927 13.7667 86.906 13.98C86.5327 14.1933 86.206 14.5333 85.926 15C85.6593 15.4667 85.486 16.0867 85.406 16.86H89.046C89.526 16.86 89.8393 16.76 89.986 16.56C90.146 16.36 90.226 16.1133 90.226 15.82C90.226 15.4333 90.126 15.08 89.926 14.76C89.7393 14.4267 89.4793 14.16 89.146 13.96C88.826 13.76 88.4593 13.66 88.046 13.66ZM88.026 22.76C86.6793 22.76 85.5993 22.3267 84.786 21.46C83.9727 20.58 83.566 19.3733 83.566 17.84C83.566 16.8133 83.7727 15.92 84.186 15.16C84.6127 14.4 85.1727 13.8067 85.866 13.38C86.5727 12.9533 87.3393 12.74 88.166 12.74C88.8593 12.74 89.486 12.8933 90.046 13.2C90.606 13.5067 91.0527 13.9467 91.386 14.52C91.7193 15.08 91.886 15.7667 91.886 16.58C91.886 16.8067 91.8727 17.02 91.846 17.22C91.8193 17.4067 91.786 17.5667 91.746 17.7H85.366C85.3927 18.9267 85.6993 19.86 86.286 20.5C86.8727 21.14 87.646 21.46 88.606 21.46C89.246 21.46 89.7793 21.3333 90.206 21.08C90.6327 20.8133 91.026 20.4733 91.386 20.06L91.866 20.44C91.4927 21.1467 90.986 21.7133 90.346 22.14C89.706 22.5533 88.9327 22.76 88.026 22.76ZM93.6613 22.5V21.78L95.1413 21.5C95.1547 20.9933 95.1613 20.4467 95.1613 19.86C95.1747 19.2733 95.1813 18.7533 95.1813 18.3V17.34C95.1813 16.7933 95.1747 16.34 95.1613 15.98C95.1613 15.62 95.148 15.24 95.1213 14.84L93.5413 14.66V13.96L96.3413 12.74L96.6413 12.94L96.8013 14.56C97.268 14.0267 97.8147 13.5933 98.4413 13.26C99.068 12.9133 99.688 12.74 100.301 12.74C100.928 12.74 101.435 12.8867 101.821 13.18C102.221 13.4733 102.508 13.9533 102.681 14.62C103.188 13.9933 103.755 13.5267 104.381 13.22C105.008 12.9 105.648 12.74 106.301 12.74C107.115 12.74 107.741 13.0133 108.181 13.56C108.635 14.1067 108.861 15 108.861 16.24V18.3C108.861 18.7533 108.861 19.2733 108.861 19.86C108.875 20.4467 108.888 20.9933 108.901 21.5L110.301 21.78V22.5H105.661V21.78L107.141 21.5C107.155 21.0067 107.161 20.4667 107.161 19.88C107.175 19.28 107.181 18.7533 107.181 18.3V16.56C107.181 15.6267 107.048 15 106.781 14.68C106.515 14.3467 106.088 14.18 105.501 14.18C105.088 14.18 104.661 14.2733 104.221 14.46C103.795 14.6467 103.328 14.9733 102.821 15.44C102.835 15.5867 102.841 15.7467 102.841 15.92C102.855 16.08 102.861 16.2533 102.861 16.44V18.3C102.861 18.7533 102.861 19.2733 102.861 19.86C102.875 20.4467 102.888 20.9933 102.901 21.5L104.301 21.78V22.5H99.6613V21.78L101.141 21.5C101.155 21.0067 101.161 20.4667 101.161 19.88C101.175 19.28 101.181 18.7533 101.181 18.3V16.6C101.181 15.6933 101.055 15.0667 100.801 14.72C100.548 14.36 100.128 14.18 99.5413 14.18C99.088 14.18 98.6547 14.2733 98.2413 14.46C97.828 14.6467 97.3747 14.9533 96.8813 15.38V18.3C96.8813 18.74 96.8813 19.26 96.8813 19.86C96.8947 20.4467 96.908 20.9933 96.9213 21.5L98.3013 21.78V22.5H93.6613ZM115.251 22.76C114.438 22.76 113.798 22.4933 113.331 21.96C112.864 21.4133 112.638 20.48 112.651 19.16L112.711 14.18L111.291 13.88V13.16L114.231 12.88L114.431 13.08L114.331 15.88V18.98C114.331 19.8467 114.464 20.46 114.731 20.82C114.998 21.1667 115.398 21.34 115.931 21.34C116.864 21.34 117.798 20.9067 118.731 20.04L118.791 14.16L117.371 13.88V13.16L120.271 12.88L120.471 13.08L120.411 15.88V21.5L121.771 21.78V22.5L118.991 22.66L118.791 20.88C118.258 21.5333 117.684 22.0133 117.071 22.32C116.471 22.6133 115.864 22.76 115.251 22.76ZM123.251 22.5V21.78L124.731 21.5C124.745 20.9933 124.751 20.4467 124.751 19.86C124.765 19.2733 124.771 18.7533 124.771 18.3V17.34C124.771 16.7933 124.765 16.34 124.751 15.98C124.751 15.62 124.738 15.24 124.711 14.84L123.131 14.66V13.96L125.931 12.74L126.231 12.94L126.391 14.54C126.885 14.0067 127.451 13.5733 128.091 13.24C128.731 12.9067 129.358 12.74 129.971 12.74C130.838 12.74 131.478 13.0333 131.891 13.62C132.318 14.1933 132.531 15.1333 132.531 16.44V18.3C132.531 18.7533 132.531 19.2733 132.531 19.86C132.545 20.4467 132.558 20.9933 132.571 21.5L133.971 21.78V22.5H129.331V21.78L130.811 21.5C130.825 21.0067 130.831 20.4667 130.831 19.88C130.845 19.28 130.851 18.7533 130.851 18.3V16.6C130.851 15.68 130.718 15.0467 130.451 14.7C130.198 14.3533 129.778 14.18 129.191 14.18C128.738 14.18 128.298 14.2733 127.871 14.46C127.445 14.6467 126.978 14.9533 126.471 15.38V18.3C126.471 18.74 126.471 19.26 126.471 19.86C126.485 20.4467 126.498 20.9933 126.511 21.5L127.891 21.78V22.5H123.251ZM135.28 22.5V21.78L136.78 21.5C136.793 20.9933 136.8 20.4467 136.8 19.86C136.813 19.26 136.82 18.74 136.82 18.3V17.36C136.82 16.8133 136.813 16.36 136.8 16C136.8 15.6267 136.787 15.24 136.76 14.84L135.16 14.66V13.96L138.24 12.74L138.54 12.94L138.48 15.66V18.3C138.48 18.74 138.48 19.26 138.48 19.86C138.493 20.4467 138.507 20.9933 138.52 21.5L139.92 21.78V22.5H135.28ZM137.64 10.54C137.267 10.54 136.947 10.42 136.68 10.18C136.427 9.94 136.3 9.63333 136.3 9.26C136.3 8.87333 136.427 8.56667 136.68 8.34C136.947 8.1 137.267 7.98 137.64 7.98C138.013 7.98 138.327 8.1 138.58 8.34C138.847 8.56667 138.98 8.87333 138.98 9.26C138.98 9.63333 138.847 9.94 138.58 10.18C138.327 10.42 138.013 10.54 137.64 10.54ZM144.637 22.76C143.944 22.76 143.39 22.5733 142.977 22.2C142.564 21.8267 142.357 21.2533 142.357 20.48C142.357 20.2267 142.357 19.98 142.357 19.74C142.37 19.4867 142.377 19.1667 142.377 18.78V14.06H140.717V13.18L142.497 12.96L143.017 10.28H144.217L144.097 13H146.797V14.06H144.077V20.26C144.077 20.7667 144.177 21.14 144.377 21.38C144.577 21.6067 144.844 21.72 145.177 21.72C145.404 21.72 145.617 21.6733 145.817 21.58C146.03 21.4867 146.264 21.3533 146.517 21.18L146.997 21.7C146.45 22.4067 145.664 22.76 144.637 22.76ZM153.381 13.72V13H157.281V13.72L156.201 13.94L152.981 22.44C152.314 24.2133 151.668 25.4933 151.041 26.28C150.428 27.08 149.708 27.48 148.881 27.48C148.388 27.48 147.954 27.3533 147.581 27.1C147.221 26.86 147.041 26.5467 147.041 26.16C147.108 25.8667 147.268 25.6467 147.521 25.5C147.788 25.3533 148.074 25.28 148.381 25.28C148.648 25.28 148.894 25.3333 149.121 25.44C149.348 25.56 149.594 25.76 149.861 26.04L149.961 26.14C150.388 25.78 150.748 25.34 151.041 24.82C151.334 24.3133 151.574 23.7933 151.761 23.26L151.841 23.02L148.221 13.88L147.121 13.72V13H151.921V13.74L150.161 13.94L152.661 20.76L155.121 13.96L153.381 13.72Z" fill="white"/>
</svg>