<svg width="149" height="31" viewBox="0 0 149 31" fill="none" xmlns="http://www.w3.org/2000/svg">
<path d="M39 23.2268V14.4004C39 13.5504 38.9993 13.1251 38.8937 12.7295C38.8001 12.379 38.6465 12.0472 38.4387 11.7474C38.2041 11.4092 37.878 11.1287 37.2246 10.5689L29.4246 3.88701C28.2113 2.84768 27.6047 2.32828 26.922 2.13063C26.3204 1.95646 25.6792 1.95646 25.0777 2.13063C24.3955 2.32814 23.7898 2.84704 22.5783 3.8848L14.7758 10.5689C14.1223 11.1287 13.7963 11.4092 13.5618 11.7474C13.3539 12.0472 13.1991 12.379 13.1056 12.7295C13 13.1251 13 13.5503 13 14.4004V23.2268C13 24.7093 13 25.4503 13.2474 26.035C13.5772 26.8147 14.2095 27.4349 15.0059 27.7578C15.6031 28 16.3603 28 17.8746 28C19.3889 28 20.1469 28 20.7441 27.7578C21.5405 27.4349 22.1726 26.8148 22.5024 26.0352C22.7498 25.4505 22.75 24.7092 22.75 23.2266V21.6357C22.75 19.8784 24.2051 18.4539 26 18.4539C27.7949 18.4539 29.25 19.8784 29.25 21.6357V23.2266C29.25 24.7092 29.25 25.4505 29.4974 26.0352C29.8272 26.8148 30.4595 27.4349 31.2559 27.7578C31.8531 28 32.6103 28 34.1246 28C35.6389 28 36.3969 28 36.9941 27.7578C37.7905 27.4349 38.4226 26.8147 38.7524 26.035C38.9998 25.4503 39 24.7093 39 23.2268Z" stroke="#22C55E" stroke-width="4" stroke-linecap="round" stroke-linejoin="round"/>
<path d="M68.2424 11.44V10.62H73.8824V11.44L72.0424 11.66C72.0291 12.5 72.0158 13.3533 72.0024 14.22C72.0024 15.0867 72.0024 15.9533 72.0024 16.82V17.8C72.0024 18.6533 72.0024 19.5133 72.0024 20.38C72.0158 21.2333 72.0291 22.0933 72.0424 22.96L73.8824 23.18V24H68.2424V23.18L70.0824 22.96C70.1091 22.1067 70.1224 21.24 70.1224 20.36C70.1224 19.4667 70.1224 18.5533 70.1224 17.62H63.6624C63.6624 18.6333 63.6624 19.5733 63.6624 20.44C63.6758 21.3067 63.6891 22.1533 63.7024 22.98L65.5224 23.18V24H59.8824V23.18L61.7224 22.96C61.7491 22.12 61.7624 21.2667 61.7624 20.4C61.7624 19.5333 61.7624 18.6667 61.7624 17.8V16.82C61.7624 15.9533 61.7624 15.0933 61.7624 14.24C61.7624 13.3733 61.7491 12.5133 61.7224 11.66L59.8824 11.44V10.62H65.5224V11.44L63.7024 11.64C63.6891 12.4933 63.6758 13.3467 63.6624 14.2C63.6624 15.0533 63.6624 15.88 63.6624 16.68H70.1224C70.1224 15.8 70.1224 14.9467 70.1224 14.12C70.1224 13.2933 70.1091 12.4733 70.0824 11.66L68.2424 11.44ZM79.8731 24.26C79.0997 24.26 78.3597 24.08 77.6531 23.72C76.9597 23.3467 76.3931 22.7933 75.9531 22.06C75.5131 21.3133 75.2931 20.3933 75.2931 19.3C75.2931 18.1933 75.5131 17.2667 75.9531 16.52C76.3931 15.76 76.9597 15.1933 77.6531 14.82C78.3597 14.4333 79.0997 14.24 79.8731 14.24C80.6464 14.24 81.3797 14.4333 82.0731 14.82C82.7797 15.1933 83.3531 15.76 83.7931 16.52C84.2464 17.2667 84.4731 18.1933 84.4731 19.3C84.4731 20.3933 84.2464 21.3133 83.7931 22.06C83.3531 22.7933 82.7797 23.3467 82.0731 23.72C81.3797 24.08 80.6464 24.26 79.8731 24.26ZM79.8731 23.36C80.7397 23.36 81.4064 23.02 81.8731 22.34C82.3397 21.6467 82.5731 20.6333 82.5731 19.3C82.5731 17.9533 82.3397 16.9267 81.8731 16.22C81.4064 15.5133 80.7397 15.16 79.8731 15.16C79.0064 15.16 78.3397 15.5133 77.8731 16.22C77.4197 16.9267 77.1931 17.9533 77.1931 19.3C77.1931 20.6333 77.4197 21.6467 77.8731 22.34C78.3397 23.02 79.0064 23.36 79.8731 23.36ZM86.1696 24V23.28L87.6496 23C87.663 22.4933 87.6696 21.9467 87.6696 21.36C87.683 20.7733 87.6896 20.2533 87.6896 19.8V18.84C87.6896 18.2933 87.683 17.84 87.6696 17.48C87.6696 17.12 87.6563 16.74 87.6296 16.34L86.0496 16.16V15.46L88.8496 14.24L89.1496 14.44L89.3096 16.06C89.7763 15.5267 90.323 15.0933 90.9496 14.76C91.5763 14.4133 92.1963 14.24 92.8096 14.24C93.4363 14.24 93.943 14.3867 94.3296 14.68C94.7296 14.9733 95.0163 15.4533 95.1896 16.12C95.6963 15.4933 96.263 15.0267 96.8896 14.72C97.5163 14.4 98.1563 14.24 98.8096 14.24C99.623 14.24 100.25 14.5133 100.69 15.06C101.143 15.6067 101.37 16.5 101.37 17.74V19.8C101.37 20.2533 101.37 20.7733 101.37 21.36C101.383 21.9467 101.396 22.4933 101.41 23L102.81 23.28V24H98.1696V23.28L99.6496 23C99.663 22.5067 99.6696 21.9667 99.6696 21.38C99.683 20.78 99.6896 20.2533 99.6896 19.8V18.06C99.6896 17.1267 99.5563 16.5 99.2896 16.18C99.023 15.8467 98.5963 15.68 98.0096 15.68C97.5963 15.68 97.1696 15.7733 96.7296 15.96C96.303 16.1467 95.8363 16.4733 95.3296 16.94C95.343 17.0867 95.3496 17.2467 95.3496 17.42C95.363 17.58 95.3696 17.7533 95.3696 17.94V19.8C95.3696 20.2533 95.3696 20.7733 95.3696 21.36C95.383 21.9467 95.3963 22.4933 95.4096 23L96.8096 23.28V24H92.1696V23.28L93.6496 23C93.663 22.5067 93.6696 21.9667 93.6696 21.38C93.683 20.78 93.6896 20.2533 93.6896 19.8V18.1C93.6896 17.1933 93.563 16.5667 93.3096 16.22C93.0563 15.86 92.6363 15.68 92.0496 15.68C91.5963 15.68 91.163 15.7733 90.7496 15.96C90.3363 16.1467 89.883 16.4533 89.3896 16.88V19.8C89.3896 20.24 89.3896 20.76 89.3896 21.36C89.403 21.9467 89.4163 22.4933 89.4296 23L90.8096 23.28V24H86.1696ZM108.777 15.16C108.404 15.16 108.024 15.2667 107.637 15.48C107.264 15.6933 106.937 16.0333 106.657 16.5C106.39 16.9667 106.217 17.5867 106.137 18.36H109.777C110.257 18.36 110.57 18.26 110.717 18.06C110.877 17.86 110.957 17.6133 110.957 17.32C110.957 16.9333 110.857 16.58 110.657 16.26C110.47 15.9267 110.21 15.66 109.877 15.46C109.557 15.26 109.19 15.16 108.777 15.16ZM108.757 24.26C107.41 24.26 106.33 23.8267 105.517 22.96C104.704 22.08 104.297 20.8733 104.297 19.34C104.297 18.3133 104.504 17.42 104.917 16.66C105.344 15.9 105.904 15.3067 106.597 14.88C107.304 14.4533 108.07 14.24 108.897 14.24C109.59 14.24 110.217 14.3933 110.777 14.7C111.337 15.0067 111.784 15.4467 112.117 16.02C112.45 16.58 112.617 17.2667 112.617 18.08C112.617 18.3067 112.604 18.52 112.577 18.72C112.55 18.9067 112.517 19.0667 112.477 19.2H106.097C106.124 20.4267 106.43 21.36 107.017 22C107.604 22.64 108.377 22.96 109.337 22.96C109.977 22.96 110.51 22.8333 110.937 22.58C111.364 22.3133 111.757 21.9733 112.117 21.56L112.597 21.94C112.224 22.6467 111.717 23.2133 111.077 23.64C110.437 24.0533 109.664 24.26 108.757 24.26Z" fill="#22C55E"/>
<circle cx="3" cy="17" r="3" fill="#22C55E"/>
</svg>