<svg width="138" height="31" viewBox="0 0 138 31" fill="none" xmlns="http://www.w3.org/2000/svg">
<path d="M28 23.2268V14.4004C28 13.5504 27.9993 13.1251 27.8937 12.7295C27.8001 12.379 27.6465 12.0472 27.4387 11.7474C27.2041 11.4092 26.878 11.1287 26.2246 10.5689L18.4246 3.88701C17.2113 2.84768 16.6047 2.32828 15.922 2.13063C15.3204 1.95646 14.6792 1.95646 14.0777 2.13063C13.3955 2.32814 12.7898 2.84704 11.5783 3.8848L3.77576 10.5689C3.12229 11.1287 2.79632 11.4092 2.56177 11.7474C2.35391 12.0472 2.19914 12.379 2.10558 12.7295C2 13.1251 2 13.5503 2 14.4004V23.2268C2 24.7093 2 25.4503 2.24739 26.035C2.57725 26.8147 3.20952 27.4349 4.00586 27.7578C4.60312 28 5.36027 28 6.87458 28C8.38889 28 9.14688 28 9.74414 27.7578C10.5405 27.4349 11.1726 26.8148 11.5024 26.0352C11.7498 25.4505 11.75 24.7092 11.75 23.2266V21.6357C11.75 19.8784 13.2051 18.4539 15 18.4539C16.7949 18.4539 18.25 19.8784 18.25 21.6357V23.2266C18.25 24.7092 18.25 25.4505 18.4974 26.0352C18.8272 26.8148 19.4595 27.4349 20.2559 27.7578C20.8531 28 21.6103 28 23.1246 28C24.6389 28 25.3969 28 25.9941 27.7578C26.7905 27.4349 27.4226 26.8147 27.7524 26.035C27.9998 25.4503 28 24.7093 28 23.2268Z" stroke="white" stroke-width="4" stroke-linecap="round" stroke-linejoin="round"/>
<path d="M57.2424 11.44V10.62H62.8824V11.44L61.0424 11.66C61.0291 12.5 61.0158 13.3533 61.0024 14.22C61.0024 15.0867 61.0024 15.9533 61.0024 16.82V17.8C61.0024 18.6533 61.0024 19.5133 61.0024 20.38C61.0158 21.2333 61.0291 22.0933 61.0424 22.96L62.8824 23.18V24H57.2424V23.18L59.0824 22.96C59.1091 22.1067 59.1224 21.24 59.1224 20.36C59.1224 19.4667 59.1224 18.5533 59.1224 17.62H52.6624C52.6624 18.6333 52.6624 19.5733 52.6624 20.44C52.6758 21.3067 52.6891 22.1533 52.7024 22.98L54.5224 23.18V24H48.8824V23.18L50.7224 22.96C50.7491 22.12 50.7624 21.2667 50.7624 20.4C50.7624 19.5333 50.7624 18.6667 50.7624 17.8V16.82C50.7624 15.9533 50.7624 15.0933 50.7624 14.24C50.7624 13.3733 50.7491 12.5133 50.7224 11.66L48.8824 11.44V10.62H54.5224V11.44L52.7024 11.64C52.6891 12.4933 52.6758 13.3467 52.6624 14.2C52.6624 15.0533 52.6624 15.88 52.6624 16.68H59.1224C59.1224 15.8 59.1224 14.9467 59.1224 14.12C59.1224 13.2933 59.1091 12.4733 59.0824 11.66L57.2424 11.44ZM68.8731 24.26C68.0997 24.26 67.3597 24.08 66.6531 23.72C65.9597 23.3467 65.3931 22.7933 64.9531 22.06C64.5131 21.3133 64.2931 20.3933 64.2931 19.3C64.2931 18.1933 64.5131 17.2667 64.9531 16.52C65.3931 15.76 65.9597 15.1933 66.6531 14.82C67.3597 14.4333 68.0997 14.24 68.8731 14.24C69.6464 14.24 70.3797 14.4333 71.0731 14.82C71.7797 15.1933 72.3531 15.76 72.7931 16.52C73.2464 17.2667 73.4731 18.1933 73.4731 19.3C73.4731 20.3933 73.2464 21.3133 72.7931 22.06C72.3531 22.7933 71.7797 23.3467 71.0731 23.72C70.3797 24.08 69.6464 24.26 68.8731 24.26ZM68.8731 23.36C69.7397 23.36 70.4064 23.02 70.8731 22.34C71.3397 21.6467 71.5731 20.6333 71.5731 19.3C71.5731 17.9533 71.3397 16.9267 70.8731 16.22C70.4064 15.5133 69.7397 15.16 68.8731 15.16C68.0064 15.16 67.3397 15.5133 66.8731 16.22C66.4197 16.9267 66.1931 17.9533 66.1931 19.3C66.1931 20.6333 66.4197 21.6467 66.8731 22.34C67.3397 23.02 68.0064 23.36 68.8731 23.36ZM75.1696 24V23.28L76.6496 23C76.663 22.4933 76.6696 21.9467 76.6696 21.36C76.683 20.7733 76.6896 20.2533 76.6896 19.8V18.84C76.6896 18.2933 76.683 17.84 76.6696 17.48C76.6696 17.12 76.6563 16.74 76.6296 16.34L75.0496 16.16V15.46L77.8496 14.24L78.1496 14.44L78.3096 16.06C78.7763 15.5267 79.323 15.0933 79.9496 14.76C80.5763 14.4133 81.1963 14.24 81.8096 14.24C82.4363 14.24 82.943 14.3867 83.3296 14.68C83.7296 14.9733 84.0163 15.4533 84.1896 16.12C84.6963 15.4933 85.263 15.0267 85.8896 14.72C86.5163 14.4 87.1563 14.24 87.8096 14.24C88.623 14.24 89.2496 14.5133 89.6896 15.06C90.143 15.6067 90.3696 16.5 90.3696 17.74V19.8C90.3696 20.2533 90.3696 20.7733 90.3696 21.36C90.383 21.9467 90.3963 22.4933 90.4096 23L91.8096 23.28V24H87.1696V23.28L88.6496 23C88.663 22.5067 88.6696 21.9667 88.6696 21.38C88.683 20.78 88.6896 20.2533 88.6896 19.8V18.06C88.6896 17.1267 88.5563 16.5 88.2896 16.18C88.023 15.8467 87.5963 15.68 87.0096 15.68C86.5963 15.68 86.1696 15.7733 85.7296 15.96C85.303 16.1467 84.8363 16.4733 84.3296 16.94C84.343 17.0867 84.3496 17.2467 84.3496 17.42C84.363 17.58 84.3696 17.7533 84.3696 17.94V19.8C84.3696 20.2533 84.3696 20.7733 84.3696 21.36C84.383 21.9467 84.3963 22.4933 84.4096 23L85.8096 23.28V24H81.1696V23.28L82.6496 23C82.663 22.5067 82.6696 21.9667 82.6696 21.38C82.683 20.78 82.6896 20.2533 82.6896 19.8V18.1C82.6896 17.1933 82.563 16.5667 82.3096 16.22C82.0563 15.86 81.6363 15.68 81.0496 15.68C80.5963 15.68 80.163 15.7733 79.7496 15.96C79.3363 16.1467 78.883 16.4533 78.3896 16.88V19.8C78.3896 20.24 78.3896 20.76 78.3896 21.36C78.403 21.9467 78.4163 22.4933 78.4296 23L79.8096 23.28V24H75.1696ZM97.777 15.16C97.4036 15.16 97.0236 15.2667 96.637 15.48C96.2636 15.6933 95.937 16.0333 95.657 16.5C95.3903 16.9667 95.217 17.5867 95.137 18.36H98.777C99.257 18.36 99.5703 18.26 99.717 18.06C99.877 17.86 99.957 17.6133 99.957 17.32C99.957 16.9333 99.857 16.58 99.657 16.26C99.4703 15.9267 99.2103 15.66 98.877 15.46C98.557 15.26 98.1903 15.16 97.777 15.16ZM97.757 24.26C96.4103 24.26 95.3303 23.8267 94.517 22.96C93.7036 22.08 93.297 20.8733 93.297 19.34C93.297 18.3133 93.5036 17.42 93.917 16.66C94.3436 15.9 94.9036 15.3067 95.597 14.88C96.3036 14.4533 97.0703 14.24 97.897 14.24C98.5903 14.24 99.217 14.3933 99.777 14.7C100.337 15.0067 100.784 15.4467 101.117 16.02C101.45 16.58 101.617 17.2667 101.617 18.08C101.617 18.3067 101.604 18.52 101.577 18.72C101.55 18.9067 101.517 19.0667 101.477 19.2H95.097C95.1236 20.4267 95.4303 21.36 96.017 22C96.6036 22.64 97.377 22.96 98.337 22.96C98.977 22.96 99.5103 22.8333 99.937 22.58C100.364 22.3133 100.757 21.9733 101.117 21.56L101.597 21.94C101.224 22.6467 100.717 23.2133 100.077 23.64C99.437 24.0533 98.6636 24.26 97.757 24.26Z" fill="white"/>
</svg>