<svg width="1358" height="724" viewBox="0 0 1358 724" fill="none" xmlns="http://www.w3.org/2000/svg">
<rect x="269.004" y="326.568" width="3.58057" height="3.58057" transform="rotate(45 269.004 326.568)" fill="#0FA9BE"/>
<rect x="307.021" y="397.875" width="7.23142" height="7.23142" transform="rotate(45 307.021 397.875)" fill="#0FA9BE"/>
<rect width="3.36493" height="3.36493" transform="matrix(-0.707129 -0.707085 -0.707129 0.707085 439.354 402.989)" fill="#0FA9BE"/>
<rect x="383.812" y="466.698" width="3.58057" height="3.58057" transform="rotate(45 383.812 466.698)" fill="#0FA9BE"/>
<rect x="190.148" y="318.084" width="3.58057" height="3.58057" transform="rotate(45 190.148 318.084)" fill="#0FA9BE"/>
<rect x="209.251" y="197.564" width="3.58057" height="3.58057" transform="rotate(45 209.251 197.564)" fill="#22C55E"/>
<rect width="2.4992" height="2.4992" transform="matrix(0.707077 0.707136 -0.707077 0.707136 263.939 267.918)" fill="#22C55E"/>
<rect x="233.457" y="255.42" width="4.6627" height="4.6627" transform="rotate(45 233.457 255.42)" fill="#22C55E"/>
<rect x="63.1235" y="654.176" width="3.47939" height="3.47939" transform="rotate(45 63.1235 654.176)" fill="#22C55E"/>
<rect width="6.48297" height="6.48297" transform="matrix(0.707118 0.707095 -0.707118 0.707095 20.7363 636.8)" fill="#22C55E"/>
<rect x="1153" y="462.101" width="4.26099" height="4.26099" transform="rotate(-32.8977 1153 462.101)" fill="#0FA9BE"/>
<rect x="1245.46" y="435.658" width="8.6056" height="8.6056" transform="rotate(-32.8977 1245.46 435.658)" fill="#0FA9BE"/>
<rect width="4.00437" height="4.00437" transform="matrix(-0.839642 0.54314 0.54314 0.839642 1284.43 282.953)" fill="#0FA9BE"/>
<rect width="4.26099" height="4.26099" transform="matrix(0.839667 -0.543102 0.543179 0.839617 1344.71 363.477)" fill="#0FA9BE"/>
<rect x="1123.46" y="551.743" width="4.26099" height="4.26099" transform="rotate(-32.8977 1123.46 551.743)" fill="#0FA9BE"/>
<rect x="987.992" y="499.446" width="4.26099" height="4.26099" transform="rotate(-32.8977 987.992 499.446)" fill="#22C55E"/>
<rect width="2.97412" height="2.97412" transform="matrix(0.839624 -0.543168 0.543113 0.83966 1083.5 453.362)" fill="#22C55E"/>
<rect width="5.54875" height="5.54875" transform="matrix(0.839652 -0.543126 0.543155 0.839632 1061.35 485.715)" fill="#22C55E"/>
<rect x="917.394" y="328.048" width="8.6056" height="8.6056" transform="rotate(9.69009 917.394 328.048)" fill="#0FA9BE"/>
<rect width="4.00437" height="4.00437" transform="matrix(-0.985732 -0.168319 -0.168319 0.985733 1049.42 241.99)" fill="#0FA9BE"/>
<rect x="1039.31" y="342.065" width="4.26099" height="4.26099" transform="rotate(9.69009 1039.31 342.065)" fill="#0FA9BE"/>
<rect x="749.019" y="330.954" width="4.26099" height="4.26099" transform="rotate(9.69009 749.019 330.954)" fill="#0FA9BE"/>
<rect x="684.669" y="200.778" width="4.26099" height="4.26099" transform="rotate(9.69009 684.669 200.778)" fill="#22C55E"/>
<rect width="2.97412" height="2.97412" transform="matrix(0.985735 0.168305 -0.168333 0.98573 786.173 231.48)" fill="#22C55E"/>
<rect x="747.974" y="240.312" width="5.54875" height="5.54875" transform="rotate(9.69009 747.974 240.312)" fill="#22C55E"/>
</svg>
